<svg width="158" height="182" viewBox="0 0 158 182" fill="none" xmlns="http://www.w3.org/2000/svg">
<g filter="url(#filter0_dd_159_2368)">
<path d="M37 31C37 29.8954 37.8954 29 39 29H119C120.105 29 121 29.8954 121 31V135C121 136.105 120.105 137 119 137H39C37.8954 137 37 136.105 37 135V31Z" fill="white" shape-rendering="crispEdges"/>
<path d="M39 28.5C37.6193 28.5 36.5 29.6193 36.5 31V135C36.5 136.381 37.6193 137.5 39 137.5H119C120.381 137.5 121.5 136.381 121.5 135V31C121.5 29.6193 120.381 28.5 119 28.5H39Z" stroke="#0A1833" stroke-opacity="0.06" shape-rendering="crispEdges"/>
</g>
<path d="M53.9093 103.311C53.4998 107.742 53.498 112.903 51.1859 116.889C50.8184 117.522 49.6724 118.893 48.8152 118.025C47.9814 117.181 48.3465 115.376 48.6193 114.42C49.286 112.082 50.5245 110.248 53.1158 110.129C54.3125 110.074 56.0308 110.312 56.4367 111.677C56.7567 112.754 56.3546 114.195 55.8097 115.135C55.4249 115.799 54.7813 116.454 54.1542 116.899C53.8409 117.12 55.4771 115.499 55.6922 115.321C57.4788 113.844 59.3529 113.414 61.5896 113.009C63.9933 112.575 66.353 111.874 68.7213 111.285C69.0145 111.212 71.5989 110.951 71.8757 110.374C72.3035 109.483 74.7939 100.743 76.6563 102.606" stroke="#000358" stroke-linecap="round"/>
<rect x="45" y="42" width="57" height="2" rx="1" fill="#D1D7E0"/>
<rect x="45" y="48" width="57" height="2" rx="1" fill="#D1D7E0"/>
<rect x="45" y="65" width="68" height="2" rx="1" fill="#D1D7E0"/>
<rect x="45" y="71" width="68" height="2" rx="1" fill="#D1D7E0"/>
<rect x="45" y="77" width="68" height="2" rx="1" fill="#D1D7E0"/>
<rect x="45" y="83" width="68" height="2" rx="1" fill="#D1D7E0"/>
<rect x="45" y="95" width="45" height="2" rx="1" fill="#D1D7E0"/>
<rect x="105" y="113" width="32" height="32" rx="16" fill="#079455"/>
<path d="M128 124L118.5 133.5L114 129" stroke="white" stroke-width="2" stroke-linecap="round" stroke-linejoin="round"/>
<defs>
<filter id="filter0_dd_159_2368" x="0" y="0" width="158" height="182" filterUnits="userSpaceOnUse" color-interpolation-filters="sRGB">
<feFlood flood-opacity="0" result="BackgroundImageFix"/>
<feColorMatrix in="SourceAlpha" type="matrix" values="0 0 0 0 0 0 0 0 0 0 0 0 0 0 0 0 0 0 127 0" result="hardAlpha"/>
<feMorphology radius="20" operator="erode" in="SourceAlpha" result="effect1_dropShadow_159_2368"/>
<feOffset dy="8"/>
<feGaussianBlur stdDeviation="28"/>
<feComposite in2="hardAlpha" operator="out"/>
<feColorMatrix type="matrix" values="0 0 0 0 0 0 0 0 0 0.0862745 0 0 0 0 0.439216 0 0 0 0.1 0"/>
<feBlend mode="normal" in2="BackgroundImageFix" result="effect1_dropShadow_159_2368"/>
<feColorMatrix in="SourceAlpha" type="matrix" values="0 0 0 0 0 0 0 0 0 0 0 0 0 0 0 0 0 0 127 0" result="hardAlpha"/>
<feMorphology radius="3" operator="erode" in="SourceAlpha" result="effect2_dropShadow_159_2368"/>
<feOffset dy="6"/>
<feGaussianBlur stdDeviation="6"/>
<feComposite in2="hardAlpha" operator="out"/>
<feColorMatrix type="matrix" values="0 0 0 0 0 0 0 0 0 0.0862745 0 0 0 0 0.439216 0 0 0 0.06 0"/>
<feBlend mode="normal" in2="effect1_dropShadow_159_2368" result="effect2_dropShadow_159_2368"/>
<feBlend mode="normal" in="SourceGraphic" in2="effect2_dropShadow_159_2368" result="shape"/>
</filter>
</defs>
</svg>
